<mxfile host="app.diagrams.net" modified="2024-05-20T21:53:31.313Z" agent="Mozilla/5.0 (Windows NT 10.0; Win64; x64) AppleWebKit/537.36 (KHTML, like Gecko) Chrome/125.0.0.0 Safari/537.36 Edg/125.0.0.0" etag="MKJHObAulgKBGU_YfPor" version="24.4.4" type="github">
  <diagram name="PÃ¡gina-1" id="-pn3sqi8I3MwEs8Mmfaj">
    <mxGraphModel dx="1179" dy="669" grid="1" gridSize="10" guides="1" tooltips="1" connect="1" arrows="1" fold="1" page="1" pageScale="1" pageWidth="827" pageHeight="1169" math="0" shadow="0">
      <root>
        <mxCell id="0" />
        <mxCell id="1" parent="0" />
        <mxCell id="sInagz4fpwWLRW9D5jU--7" value="" style="edgeStyle=orthogonalEdgeStyle;rounded=0;orthogonalLoop=1;jettySize=auto;html=1;" edge="1" parent="1" source="sInagz4fpwWLRW9D5jU--1" target="sInagz4fpwWLRW9D5jU--6">
          <mxGeometry relative="1" as="geometry" />
        </mxCell>
        <mxCell id="sInagz4fpwWLRW9D5jU--1" value="/create" style="rounded=0;whiteSpace=wrap;html=1;" vertex="1" parent="1">
          <mxGeometry x="60" y="142" width="120" height="60" as="geometry" />
        </mxCell>
        <mxCell id="sInagz4fpwWLRW9D5jU--10" value="" style="edgeStyle=orthogonalEdgeStyle;rounded=0;orthogonalLoop=1;jettySize=auto;html=1;" edge="1" parent="1" source="sInagz4fpwWLRW9D5jU--6" target="sInagz4fpwWLRW9D5jU--9">
          <mxGeometry relative="1" as="geometry" />
        </mxCell>
        <mxCell id="sInagz4fpwWLRW9D5jU--13" value="" style="edgeStyle=orthogonalEdgeStyle;rounded=0;orthogonalLoop=1;jettySize=auto;html=1;" edge="1" parent="1" source="sInagz4fpwWLRW9D5jU--6" target="sInagz4fpwWLRW9D5jU--12">
          <mxGeometry relative="1" as="geometry" />
        </mxCell>
        <mxCell id="sInagz4fpwWLRW9D5jU--6" value="GameManager?" style="rhombus;whiteSpace=wrap;html=1;rounded=0;" vertex="1" parent="1">
          <mxGeometry x="70" y="282" width="100" height="100" as="geometry" />
        </mxCell>
        <mxCell id="sInagz4fpwWLRW9D5jU--8" value="yes" style="text;html=1;align=center;verticalAlign=middle;resizable=0;points=[];autosize=1;strokeColor=none;fillColor=none;" vertex="1" parent="1">
          <mxGeometry x="75" y="362" width="40" height="30" as="geometry" />
        </mxCell>
        <mxCell id="sInagz4fpwWLRW9D5jU--9" value="create_game" style="whiteSpace=wrap;html=1;rounded=0;" vertex="1" parent="1">
          <mxGeometry x="60" y="462" width="120" height="60" as="geometry" />
        </mxCell>
        <mxCell id="sInagz4fpwWLRW9D5jU--11" value="" style="shape=flexArrow;endArrow=classic;html=1;rounded=0;" edge="1" parent="1">
          <mxGeometry width="50" height="50" relative="1" as="geometry">
            <mxPoint x="119.57999999999998" y="522" as="sourcePoint" />
            <mxPoint x="119.57999999999998" y="582" as="targetPoint" />
          </mxGeometry>
        </mxCell>
        <mxCell id="sInagz4fpwWLRW9D5jU--15" style="edgeStyle=orthogonalEdgeStyle;rounded=0;orthogonalLoop=1;jettySize=auto;html=1;" edge="1" parent="1" source="sInagz4fpwWLRW9D5jU--12">
          <mxGeometry relative="1" as="geometry">
            <mxPoint x="120" y="412" as="targetPoint" />
            <Array as="points">
              <mxPoint x="300" y="412" />
              <mxPoint x="120" y="412" />
            </Array>
          </mxGeometry>
        </mxCell>
        <mxCell id="sInagz4fpwWLRW9D5jU--12" value="instate GameManager" style="whiteSpace=wrap;html=1;rounded=0;" vertex="1" parent="1">
          <mxGeometry x="240" y="302" width="120" height="60" as="geometry" />
        </mxCell>
        <mxCell id="sInagz4fpwWLRW9D5jU--14" value="no" style="text;html=1;align=center;verticalAlign=middle;resizable=0;points=[];autosize=1;strokeColor=none;fillColor=none;" vertex="1" parent="1">
          <mxGeometry x="150" y="300" width="40" height="30" as="geometry" />
        </mxCell>
        <mxCell id="sInagz4fpwWLRW9D5jU--32" value="game async task" style="rounded=0;whiteSpace=wrap;html=1;" vertex="1" parent="1">
          <mxGeometry x="524" y="442" width="120" height="60" as="geometry" />
        </mxCell>
        <mxCell id="sInagz4fpwWLRW9D5jU--33" value="game async task" style="rounded=0;whiteSpace=wrap;html=1;" vertex="1" parent="1">
          <mxGeometry x="444" y="542" width="120" height="60" as="geometry" />
        </mxCell>
        <mxCell id="sInagz4fpwWLRW9D5jU--34" value="" style="rounded=0;whiteSpace=wrap;html=1;fillColor=none;" vertex="1" parent="1">
          <mxGeometry x="414" y="402" width="340" height="240" as="geometry" />
        </mxCell>
        <mxCell id="sInagz4fpwWLRW9D5jU--35" value="game async task" style="rounded=0;whiteSpace=wrap;html=1;" vertex="1" parent="1">
          <mxGeometry x="614" y="542" width="120" height="60" as="geometry" />
        </mxCell>
        <mxCell id="sInagz4fpwWLRW9D5jU--36" value="GameManager Thread" style="text;html=1;align=center;verticalAlign=middle;resizable=0;points=[];autosize=1;strokeColor=none;fillColor=none;" vertex="1" parent="1">
          <mxGeometry x="414" y="372" width="140" height="30" as="geometry" />
        </mxCell>
        <mxCell id="sInagz4fpwWLRW9D5jU--44" style="edgeStyle=orthogonalEdgeStyle;rounded=0;orthogonalLoop=1;jettySize=auto;html=1;startArrow=classic;startFill=1;" edge="1" parent="1" source="sInagz4fpwWLRW9D5jU--37">
          <mxGeometry relative="1" as="geometry">
            <mxPoint x="574" y="160" as="targetPoint" />
          </mxGeometry>
        </mxCell>
        <mxCell id="sInagz4fpwWLRW9D5jU--37" value="Actor" style="shape=umlActor;verticalLabelPosition=bottom;verticalAlign=top;html=1;outlineConnect=0;" vertex="1" parent="1">
          <mxGeometry x="674" y="60" width="30" height="60" as="geometry" />
        </mxCell>
        <mxCell id="sInagz4fpwWLRW9D5jU--43" style="edgeStyle=orthogonalEdgeStyle;rounded=0;orthogonalLoop=1;jettySize=auto;html=1;startArrow=classic;startFill=1;" edge="1" parent="1" source="sInagz4fpwWLRW9D5jU--38" target="sInagz4fpwWLRW9D5jU--42">
          <mxGeometry relative="1" as="geometry" />
        </mxCell>
        <mxCell id="sInagz4fpwWLRW9D5jU--38" value="Actor" style="shape=umlActor;verticalLabelPosition=bottom;verticalAlign=top;html=1;outlineConnect=0;" vertex="1" parent="1">
          <mxGeometry x="444" y="60" width="30" height="60" as="geometry" />
        </mxCell>
        <mxCell id="sInagz4fpwWLRW9D5jU--46" value="" style="edgeStyle=orthogonalEdgeStyle;rounded=0;orthogonalLoop=1;jettySize=auto;html=1;" edge="1" parent="1" source="sInagz4fpwWLRW9D5jU--41">
          <mxGeometry relative="1" as="geometry">
            <mxPoint x="574" y="400" as="targetPoint" />
          </mxGeometry>
        </mxCell>
        <mxCell id="sInagz4fpwWLRW9D5jU--41" value="redis" style="shape=cylinder3;whiteSpace=wrap;html=1;boundedLbl=1;backgroundOutline=1;size=15;" vertex="1" parent="1">
          <mxGeometry x="544" y="270" width="60" height="80" as="geometry" />
        </mxCell>
        <mxCell id="sInagz4fpwWLRW9D5jU--45" value="" style="edgeStyle=orthogonalEdgeStyle;rounded=0;orthogonalLoop=1;jettySize=auto;html=1;" edge="1" parent="1" source="sInagz4fpwWLRW9D5jU--42" target="sInagz4fpwWLRW9D5jU--41">
          <mxGeometry relative="1" as="geometry" />
        </mxCell>
        <mxCell id="sInagz4fpwWLRW9D5jU--42" value="wss" style="ellipse;shape=cloud;whiteSpace=wrap;html=1;" vertex="1" parent="1">
          <mxGeometry x="514" y="160" width="120" height="80" as="geometry" />
        </mxCell>
      </root>
    </mxGraphModel>
  </diagram>
</mxfile>
